# xmcd CD database file
#
# Track frame offsets:
#	150
#	10700
#	28315
#	38120
#	57772
#
# Disc length: 1063 seconds
#
# Revision: 0
# Processed by: cddbd v1.5.2PL0 Copyright (c) Steve Scherf et al.
# Submitted via: CDex 1.70beta2
#
DISCID=35042505
DTITLE=Williams Wetsox - I bin a Musikant
DYEAR=1900
DGENRE=Blues
TTITLE0=Riessersee
TTITLE1=weit furt
TTITLE2=I bin a Musikant
TTITLE3=s'schenste Madl
TTITLE4=da Zug der fahrt
EXTD=
EXTT0=
EXTT1=
EXTT2=
EXTT3=
EXTT4=
PLAYORDER=
